<svg width="22" height="22" viewBox="0 0 22 22" fill="none" xmlns="http://www.w3.org/2000/svg">
<path d="M11 21.0834C5.43891 21.0834 0.916672 16.5611 0.916672 11C0.916672 5.43897 5.43891 0.916687 11 0.916687C16.5611 0.916687 21.0833 5.43897 21.0833 11C21.0833 16.5611 16.5611 21.0834 11 21.0834" fill="#E6E6E6"/>
<path d="M11 21.0834C5.43891 21.0834 0.916672 16.5611 0.916672 11C0.916672 5.43897 5.43891 0.916687 11 0.916687C16.5611 0.916687 21.0833 5.43897 21.0833 11C21.0833 16.5611 16.5611 21.0834 11 21.0834" stroke="#939593"/>
<path d="M10.9999 16.0834C13.8074 16.0834 16.0833 13.8075 16.0833 11C16.0833 8.19257 13.8074 5.91669 10.9999 5.91669C8.19248 5.91669 5.9166 8.19257 5.9166 11C5.9166 13.8075 8.19248 16.0834 10.9999 16.0834Z" fill="black" stroke="#939593"/>
</svg>
