<svg width="20" height="20" viewBox="0 0 20 20" fill="none" xmlns="http://www.w3.org/2000/svg">
<path d="M9.99999 19.1666C4.94446 19.1666 0.833328 15.0555 0.833328 9.99997C0.833328 4.94448 4.94446 0.833313 9.99999 0.833313C15.0555 0.833313 19.1667 4.94448 19.1667 9.99997C19.1667 15.0555 15.0555 19.1666 9.99999 19.1666" fill="#E6E6E6"/>
<path d="M9.99999 19.1666C4.94446 19.1666 0.833328 15.0555 0.833328 9.99997C0.833328 4.94448 4.94446 0.833313 9.99999 0.833313C15.0555 0.833313 19.1667 4.94448 19.1667 9.99997C19.1667 15.0555 15.0555 19.1666 9.99999 19.1666" stroke="#939593"/>
<path d="M9.99993 14.6666C12.5773 14.6666 14.6666 12.5773 14.6666 9.99998C14.6666 7.42265 12.5773 5.33331 9.99993 5.33331C7.4226 5.33331 5.33327 7.42265 5.33327 9.99998C5.33327 12.5773 7.4226 14.6666 9.99993 14.6666Z" fill="black" stroke="#939593"/>
</svg>
